<?xml version="1.0" encoding="UTF-8"?>
<svg width="592px" height="346px" viewBox="0 0 592 346" version="1.1" xmlns="http://www.w3.org/2000/svg" xmlns:xlink="http://www.w3.org/1999/xlink">
    <title>salesforce</title>
    <defs>
        <rect id="path-1" x="0" y="0" width="592" height="346"></rect>
        <rect id="path-3" x="0" y="263" width="174" height="23"></rect>
        <filter x="-0.6%" y="-4.3%" width="101.1%" height="117.4%" filterUnits="objectBoundingBox" id="filter-4">
            <feOffset dx="0" dy="2" in="SourceAlpha" result="shadowOffsetOuter1"></feOffset>
            <feColorMatrix values="0 0 0 0 0.878431373   0 0 0 0 0.878431373   0 0 0 0 0.878431373  0 0 0 1 0" type="matrix" in="shadowOffsetOuter1"></feColorMatrix>
        </filter>
        <rect id="path-5" x="0" y="322" width="274" height="23"></rect>
        <filter x="-0.4%" y="-4.3%" width="100.7%" height="117.4%" filterUnits="objectBoundingBox" id="filter-6">
            <feOffset dx="0" dy="2" in="SourceAlpha" result="shadowOffsetOuter1"></feOffset>
            <feColorMatrix values="0 0 0 0 0.760784314   0 0 0 0 0.458823529   0 0 0 0 0.309803922  0 0 0 1 0" type="matrix" in="shadowOffsetOuter1"></feColorMatrix>
        </filter>
        <rect id="path-7" x="186" y="263" width="88" height="23"></rect>
        <filter x="-1.1%" y="-4.3%" width="102.3%" height="117.4%" filterUnits="objectBoundingBox" id="filter-8">
            <feOffset dx="0" dy="2" in="SourceAlpha" result="shadowOffsetOuter1"></feOffset>
            <feColorMatrix values="0 0 0 0 0.760784314   0 0 0 0 0.458823529   0 0 0 0 0.309803922  0 0 0 1 0" type="matrix" in="shadowOffsetOuter1"></feColorMatrix>
        </filter>
        <rect id="path-9" x="286" y="263" width="128" height="23"></rect>
        <filter x="-0.8%" y="-4.3%" width="101.6%" height="117.4%" filterUnits="objectBoundingBox" id="filter-10">
            <feOffset dx="0" dy="2" in="SourceAlpha" result="shadowOffsetOuter1"></feOffset>
            <feColorMatrix values="0 0 0 0 0.878431373   0 0 0 0 0.878431373   0 0 0 0 0.878431373  0 0 0 1 0" type="matrix" in="shadowOffsetOuter1"></feColorMatrix>
        </filter>
    </defs>
    <g id="Page-1" stroke="none" stroke-width="1" fill="none" fill-rule="evenodd">
        <g id="salesforce">
            <g id="Group-5">
                <mask id="mask-2" fill="white">
                    <use xlink:href="#path-1"></use>
                </mask>
                <use id="Mask" fill="#F4F4F4" xlink:href="#path-1"></use>
                <g mask="url(#mask-2)">
                    <g transform="translate(24.000000, 10.000000)">
                        <rect id="Rectangle" stroke="none" fill="#0C5CAA" fill-rule="nonzero" x="0" y="109" width="50" height="10" rx="2.036"></rect>
                        <rect id="Rectangle" stroke="none" fill="#B7B6B8" fill-rule="nonzero" x="0" y="130" width="110" height="10" rx="2.036"></rect>
                        <rect id="Rectangle" stroke="none" fill="#B7B6B8" fill-rule="nonzero" x="121" y="130" width="34" height="10" rx="2.036"></rect>
                        <g id="salesforca-seeklogo.com" stroke="none" stroke-width="1" fill="none" fill-rule="evenodd">
                            <path d="M29.5981119,44.336382 C31.8892025,46.7236092 35.0789186,48.2041151 38.6066314,48.2041151 C43.2960811,48.2041151 47.3874586,45.5891956 49.5662211,41.7072948 C51.4596092,42.5532981 53.5553903,43.0238623 55.7604636,43.0238623 C64.2184739,43.0238623 71.0755542,36.1070762 71.0755542,27.5751924 C71.0755542,19.0422969 64.2184739,12.1255106 55.7604636,12.1255106 C54.7282586,12.1255106 53.7193286,12.2287312 52.7437936,12.4260645 C50.8251064,9.00359616 47.1688742,6.69125433 42.9722519,6.69125433 C41.2154794,6.69125433 39.5538314,7.0970526 38.0743375,7.81858422 C36.1293392,3.24348685 31.5977564,0.0355552778 26.3163069,0.0355552778 C20.8162728,0.0355552778 16.1288472,3.51570566 14.3295721,8.39641669 C13.5432747,8.22944233 12.7286422,8.14241327 11.8927584,8.14241327 C5.34432778,8.14241327 0.0355552144,13.505832 0.0355552144,20.1230763 C0.0355552144,24.5575104 2.42075859,28.4292915 5.96466281,30.5007856 C5.23503547,32.1796367 4.82923719,34.0325462 4.82923719,35.9805804 C4.82923719,43.5905631 11.0072884,49.7595067 18.6273908,49.7595067 C23.1012916,49.7595067 27.0773052,47.6323545 29.5981119,44.336382" id="Path" fill="#00A1E0" fill-rule="nonzero" transform="translate(35.555555, 24.897531) scale(-1, 1) rotate(-180.000000) translate(-35.555555, -24.897531) "></path>
                            <path d="M10.3250207,20.9252613 C10.2804942,20.8088852 10.3412121,20.7845981 10.3553796,20.7643587 C10.4889591,20.66721 10.6245625,20.5973844 10.7611779,20.519463 C11.4857454,20.134916 12.1698343,20.0225878 12.8852941,20.0225878 C14.3425249,20.0225878 15.2472223,20.7977536 15.2472223,22.0455074 L15.2472223,22.0697946 C15.2472223,23.2234356 14.2261488,23.6423895 13.2678172,23.9449673 L13.1433454,23.9854459 C12.4208018,24.2202219 11.7974309,24.4226151 11.7974309,24.898239 L11.7974309,24.9235382 C11.7974309,25.3303484 12.1617386,25.6298903 12.7264155,25.6298903 C13.3538343,25.6298903 14.0986411,25.4214253 14.5783129,25.1562903 C14.5783129,25.1562903 14.7189761,25.0652134 14.7705864,25.2018288 C14.7989214,25.2746903 15.0417932,25.9284202 15.0670924,25.9992578 C15.0944154,26.0761672 15.0458411,26.1328373 14.9962548,26.1631963 C14.4487813,26.496133 13.6918309,26.7238253 12.9085693,26.7238253 L12.7628462,26.7228134 C11.4290753,26.7228134 10.4980668,25.9172886 10.4980668,24.7626356 L10.4980668,24.7383484 C10.4980668,23.5209536 11.5252121,23.1262869 12.4875916,22.8510322 L12.6424223,22.8034698 C13.3437146,22.5879211 13.9478582,22.4027314 13.9478582,21.9088921 L13.9478582,21.8846049 C13.9478582,21.4332681 13.5552155,21.0972955 12.9217249,21.0972955 C12.6758172,21.0972955 11.8915437,21.1023553 11.0445283,21.6376852 C10.9423198,21.6973912 10.8826138,21.7409057 10.8036805,21.7884681 C10.7621899,21.8147793 10.6579574,21.8603177 10.6124189,21.7226904 L10.3250207,20.9252613 L10.3250207,20.9252613 Z" id="Path" fill="#FFFFFF" fill-rule="nonzero" transform="translate(12.778094, 23.373207) scale(-1, 1) rotate(-180.000000) translate(-12.778094, -23.373207) "></path>
                            <path d="M31.6582719,20.9252613 C31.6137456,20.8088852 31.6744633,20.7845981 31.6886311,20.7643587 C31.8222106,20.66721 31.9578139,20.5973844 32.0944292,20.519463 C32.8189967,20.134916 33.5030856,20.0225878 34.2185456,20.0225878 C35.6757761,20.0225878 36.5804736,20.7977536 36.5804736,22.0455074 L36.5804736,22.0697946 C36.5804736,23.2234356 35.5594003,23.6423895 34.6010686,23.9449673 L34.4765967,23.9854459 C33.7540531,24.2202219 33.1306822,24.4226151 33.1306822,24.898239 L33.1306822,24.9235382 C33.1306822,25.3303484 33.49499,25.6298903 34.0596669,25.6298903 C34.6870856,25.6298903 35.4318925,25.4214253 35.9115642,25.1562903 C35.9115642,25.1562903 36.0522275,25.0652134 36.1038378,25.2018288 C36.1321728,25.2746903 36.3750444,25.9284202 36.4003436,25.9992578 C36.4276667,26.0761672 36.3790925,26.1328373 36.3295061,26.1631963 C35.7820325,26.496133 35.0250822,26.7238253 34.2418206,26.7238253 L34.0960975,26.7228134 C32.7623267,26.7228134 31.8313181,25.9172886 31.8313181,24.7626356 L31.8313181,24.7383484 C31.8313181,23.5209536 32.8584633,23.1262869 33.8208428,22.8510322 L33.9756736,22.8034698 C34.6769658,22.5879211 35.2821214,22.4027314 35.2821214,21.9088921 L35.2821214,21.8846049 C35.2821214,21.4332681 34.8884669,21.0972955 34.2549761,21.0972955 C34.0090686,21.0972955 33.224795,21.1023553 32.3777797,21.6376852 C32.2755711,21.6973912 32.2148531,21.7388818 32.1379439,21.7884681 C32.1116328,21.8056716 31.9881728,21.8532339 31.9456703,21.7226904 L31.6582719,20.9252613 L31.6582719,20.9252613 Z" id="Path" fill="#FFFFFF" fill-rule="nonzero" transform="translate(34.111345, 23.373207) scale(-1, 1) rotate(-180.000000) translate(-34.111345, -23.373207) "></path>
                            <path d="M46.2218803,23.3649096 C46.2218803,22.6595695 46.0903247,22.1040002 45.8312614,21.7113575 C45.5752342,21.3227626 45.1876511,21.1335251 44.6472614,21.1335251 C44.1058597,21.1335251 43.7203008,21.3217507 43.4683211,21.7113575 C43.2133058,22.1029883 43.0837742,22.6595695 43.0837742,23.3649096 C43.0837742,24.0692378 43.2133058,24.6237951 43.4683211,25.0123899 C43.7203008,25.3969369 44.1058597,25.5841506 44.6472614,25.5841506 C45.1876511,25.5841506 45.5752342,25.3969369 45.8322733,25.0123899 C46.0903247,24.6237951 46.2218803,24.0692378 46.2218803,23.3649096 M47.4382631,24.6723694 C47.3188511,25.0761438 47.1326494,25.4323557 46.8847178,25.7288617 C46.6367861,26.0263797 46.3230767,26.2652036 45.9506733,26.4392617 C45.5792819,26.6123079 45.1400886,26.7003489 44.6472614,26.7003489 C44.1534222,26.7003489 43.7142289,26.6123079 43.3428375,26.4392617 C42.9704342,26.2652036 42.6567247,26.0263797 42.4077811,25.7288617 C42.1608614,25.4313438 41.9746597,25.0751318 41.8542358,24.6723694 C41.7358358,24.270619 41.6761297,23.8314259 41.6761297,23.3649096 C41.6761297,22.8983934 41.7358358,22.4581883 41.8542358,22.0574498 C41.9746597,21.6546874 42.1598494,21.2984755 42.4087931,21.0009575 C42.6567247,20.7034396 42.9714461,20.4656276 43.3428375,20.2966293 C43.7152408,20.127631 44.1534222,20.0416139 44.6472614,20.0416139 C45.1400886,20.0416139 45.57827,20.127631 45.9506733,20.2966293 C46.3220647,20.4656276 46.6367861,20.7034396 46.8847178,21.0009575 C47.1326494,21.2974635 47.3188511,21.6536755 47.4382631,22.0574498 C47.557675,22.4592002 47.6173811,22.8994054 47.6173811,23.3649096 C47.6173811,23.8304139 47.557675,24.270619 47.4382631,24.6723694" id="Shape" fill="#FFFFFF" fill-rule="nonzero" transform="translate(44.646755, 23.370981) scale(-1, 1) rotate(-180.000000) translate(-44.646755, -23.370981) "></path>
                            <path d="M57.4270783,21.3125395 C57.3865997,21.4309395 57.2722475,21.386413 57.2722475,21.386413 C57.0951536,21.3186113 56.9069281,21.2558694 56.7065589,21.2244985 C56.5031536,21.1931276 56.2795092,21.1769361 56.0396733,21.1769361 C55.4507092,21.1769361 54.9831811,21.3520062 54.6482203,21.6980985 C54.3122478,22.0441908 54.1240219,22.6038079 54.1260461,23.3607583 C54.12807,24.049907 54.2940322,24.5680335 54.5925622,24.9627001 C54.8890681,25.3553429 55.340405,25.5567241 55.9425244,25.5567241 C56.4444597,25.5567241 56.8269828,25.499042 57.2277211,25.3725463 C57.2277211,25.3725463 57.3238578,25.3310557 57.3693964,25.4565394 C57.4756528,25.7520335 57.5545861,25.9635343 57.6679264,26.2883753 C57.7003092,26.3804642 57.6213758,26.4199309 57.5930408,26.4310625 C57.4351742,26.4927924 57.0627708,26.5929771 56.7814442,26.6354796 C56.5183331,26.6759583 56.2106956,26.6972095 55.8686511,26.6972095 C55.3576083,26.6972095 54.9022236,26.6101805 54.5126169,26.4361224 C54.1240219,26.2630762 53.7941211,26.0242523 53.5330339,25.7267343 C53.2719469,25.4292164 53.0736017,25.0730044 52.9410342,24.670242 C52.8094786,24.2684916 52.7426886,23.8272745 52.7426886,23.3607583 C52.7426886,22.3518284 53.0149075,21.536184 53.5522614,20.9391241 C54.0906272,20.3400404 54.8991878,20.0354387 55.9536561,20.0354387 C56.5770272,20.0354387 57.2165894,20.1619344 57.6760219,20.3430763 C57.6760219,20.3430763 57.7640631,20.3855789 57.7256083,20.4877874 L57.4270783,21.3125395 L57.4270783,21.3125395 Z" id="Path" fill="#FFFFFF" fill-rule="nonzero" transform="translate(55.239009, 23.366324) scale(-1, 1) rotate(-180.000000) translate(-55.239009, -23.366324) "></path>
                            <path d="M59.5553344,24.0422367 C59.6130164,24.4338675 59.7212967,24.7597205 59.8882711,25.0137239 C60.1402506,25.3992829 60.5247975,25.6107837 61.0651875,25.6107837 C61.6055772,25.6107837 61.9628011,25.3982709 62.2188283,25.0137239 C62.3888386,24.7597205 62.4627122,24.4197 62.4920592,24.0422367 L59.5553344,24.0422367 L59.5553344,24.0422367 Z M63.65076,24.9034197 C63.5475394,25.2930265 63.2915122,25.6866812 63.1235258,25.8668111 C62.8583908,26.1521854 62.5993275,26.3515427 62.3422883,26.4628589 C62.0063156,26.6065581 61.6035531,26.7016829 61.1623361,26.7016829 C60.6482575,26.7016829 60.1817411,26.6156658 59.8032661,26.4375598 C59.4237789,26.2594538 59.1050097,26.016582 58.8550542,25.7140042 C58.6050986,25.4124384 58.4168728,25.0531906 58.2974608,24.6453684 C58.1770369,24.2395701 58.1163192,23.797341 58.1163192,23.3308248 C58.1163192,22.8562129 58.1790608,22.4139838 58.3035328,22.0162812 C58.4290164,21.6155428 58.6293858,21.2623667 58.9005925,20.9699086 C59.1707875,20.6754265 59.5189036,20.4446984 59.9358336,20.2837958 C60.3497275,20.1239052 60.8526744,20.040924 61.4305069,20.0419268 C62.6195669,20.0459838 63.2459736,20.3111189 63.504025,20.453806 C63.5495633,20.4791052 63.5930781,20.5236317 63.5384317,20.6511394 L63.2692489,21.4050539 C63.2287703,21.5173821 63.1144181,21.4758915 63.1144181,21.4758915 C62.8199361,21.3665992 62.4009822,21.1702778 61.4244353,21.1723018 C60.7858847,21.1733137 60.3122847,21.3615394 60.0157789,21.6560214 C59.7111772,21.9575872 59.5624181,22.4008282 59.5361069,23.0262231 L63.6537958,23.0221752 C63.6537958,23.0221752 63.7620761,23.0241992 63.7732078,23.1294436 C63.7772558,23.1739701 63.9148831,23.975447 63.65076,24.9034197 L63.65076,24.9034197 Z" id="Shape" fill="#FFFFFF" fill-rule="nonzero" transform="translate(60.964473, 23.371800) scale(-1, 1) rotate(-180.000000) translate(-60.964473, -23.371800) "></path>
                            <path d="M26.5786084,24.0422367 C26.6373024,24.4338675 26.7445707,24.7597205 26.9115451,25.0137239 C27.1635246,25.3992829 27.5480716,25.6107837 28.0884614,25.6107837 C28.6288511,25.6107837 28.986075,25.3982709 29.2431142,25.0137239 C29.4121125,24.7597205 29.4859861,24.4197 29.5153331,24.0422367 L26.5786084,24.0422367 L26.5786084,24.0422367 Z M30.6730219,24.9034197 C30.5698014,25.2930265 30.3147861,25.6866812 30.1467997,25.8668111 C29.8816647,26.1521854 29.6226014,26.3515427 29.3655622,26.4628589 C29.0295894,26.6065581 28.6268272,26.7016829 28.18561,26.7016829 C27.6725434,26.7016829 27.2050152,26.6156658 26.82654,26.4375598 C26.4470528,26.2594538 26.1282836,26.016582 25.878328,25.7140042 C25.6283725,25.4124384 25.4401468,25.0531906 25.3207349,24.6453684 C25.2013229,24.2395701 25.139593,23.797341 25.139593,23.3308248 C25.139593,22.8562129 25.2023349,22.4139838 25.3268067,22.0162812 C25.4522904,21.6155428 25.6526596,21.2623667 25.9238665,20.9699086 C26.1940614,20.6754265 26.5421776,20.4446984 26.9591075,20.2837958 C27.3730015,20.1239052 27.8759486,20.040924 28.4537811,20.0419268 C29.6428408,20.0459838 30.2692475,20.3111189 30.5272989,20.453806 C30.5728372,20.4791052 30.6163519,20.5236317 30.5617058,20.6511394 L30.2935347,21.4050539 C30.2520442,21.5173821 30.1376919,21.4758915 30.1376919,21.4758915 C29.84321,21.3665992 29.4252681,21.1702778 28.4466972,21.1723018 C27.8091589,21.1733137 27.3355588,21.3615394 27.0390528,21.6560214 C26.7344511,21.9575872 26.5856921,22.4008282 26.559381,23.0262231 L30.6770697,23.0221752 C30.6770697,23.0221752 30.7853503,23.0241992 30.7964817,23.1294436 C30.8005297,23.1739701 30.9381569,23.975447 30.6730219,24.9034197 L30.6730219,24.9034197 Z" id="Shape" fill="#FFFFFF" fill-rule="nonzero" transform="translate(27.987679, 23.371800) scale(-1, 1) rotate(-180.000000) translate(-27.987679, -23.371800) "></path>
                            <path d="M17.6782677,21.3385486 C17.5173652,21.4670682 17.4951019,21.4994511 17.4404558,21.5824323 C17.3594985,21.708928 17.3180079,21.8890579 17.3180079,22.1177622 C17.3180079,22.480046 17.4374199,22.7401212 17.6853515,22.9151913 C17.6823156,22.9141793 18.0395395,23.2238408 18.8794711,23.2127092 C19.4694472,23.2046135 19.9966814,23.1175844 19.9966814,23.1175844 L19.9966814,21.2454477 L19.9976933,21.2454477 C19.9976933,21.2454477 19.474507,21.1331195 18.8855429,21.0977007 C18.0476352,21.0471024 17.6752318,21.3395605 17.6782677,21.3385486 M19.3166404,24.2317588 C19.149666,24.2439024 18.9331053,24.2509861 18.6740421,24.2509861 C18.320866,24.2509861 17.9798335,24.2064596 17.6600524,24.1204425 C17.3382472,24.0344254 17.048825,23.899834 16.7998814,23.721728 C16.5499259,23.5426101 16.3485447,23.3139058 16.2028216,23.0426989 C16.0570985,22.7714921 15.983225,22.4517109 15.983225,22.093475 C15.983225,21.7291674 16.0459669,21.4124221 16.1714507,21.1533588 C16.2969344,20.8932836 16.4780763,20.6767229 16.7088045,20.5097486 C16.9375088,20.3427742 17.2198472,20.2203264 17.5477241,20.1464529 C17.8705412,20.0725793 18.2368729,20.0351366 18.6376113,20.0351366 C19.0596011,20.0351366 19.4805788,20.0695434 19.888401,20.1393691 C20.2921754,20.2081827 20.7880386,20.3083674 20.925666,20.3397383 C21.0622814,20.3721212 21.2140762,20.4136118 21.2140762,20.4136118 C21.3162848,20.438911 21.3081891,20.5482033 21.3081891,20.5482033 L21.3061651,24.313728 C21.3061651,25.1394921 21.0855566,25.7517314 20.6514232,26.1312186 C20.2193138,26.5096938 19.5827874,26.7009553 18.7600592,26.7009553 C18.4514096,26.7009553 17.9545344,26.6584527 17.6570164,26.5987467 C17.6570164,26.5987467 16.7573789,26.4246886 16.3869994,26.1352664 C16.3869994,26.1352664 16.3060421,26.0846681 16.3505686,25.971328 L16.6420147,25.1880664 C16.6784455,25.0868699 16.7766062,25.1212767 16.7766062,25.1212767 C16.7766062,25.1212767 16.8079771,25.1334203 16.8444079,25.1546716 C17.6367771,25.585769 18.6386233,25.5726134 18.6386233,25.5726134 C19.0838882,25.5726134 19.4259327,25.4835604 19.6566609,25.3064664 C19.8813173,25.1344322 19.9956694,24.8743571 19.9956694,24.3258716 L19.9956694,24.1518135 C19.6414814,24.2024117 19.3166404,24.2317588 19.3166404,24.2317588" id="Shape" fill="#FFFFFF" fill-rule="nonzero" transform="translate(18.645783, 23.368046) scale(-1, 1) rotate(-180.000000) translate(-18.645783, -23.368046) "></path>
                            <path d="M52.5275369,26.2941598 C52.5589081,26.3872607 52.4931303,26.4317872 52.4658072,26.4419068 C52.3959814,26.4692299 52.0458414,26.5431034 51.7756464,26.5603068 C51.2585319,26.5916778 50.9711336,26.5046487 50.7140944,26.3892846 C50.4590789,26.2739205 50.1757286,26.0877188 50.0178619,25.8762179 L50.0178619,26.377141 C50.0178619,26.4469667 49.9682756,26.5026248 49.8994619,26.5026248 L48.8439817,26.5026248 C48.7751678,26.5026248 48.7255817,26.4469667 48.7255817,26.377141 L48.7255817,20.2355206 C48.7255817,20.1667069 48.7822517,20.1100368 48.8510653,20.1100368 L49.9328567,20.1100368 C50.0016706,20.1100368 50.0573286,20.1667069 50.0573286,20.2355206 L50.0573286,23.3038009 C50.0573286,23.715671 50.1028669,24.1265291 50.1939439,24.3845803 C50.2829969,24.6395957 50.4044328,24.8440128 50.5542039,24.9907479 C50.7049867,25.136471 50.8760089,25.2386795 51.0632225,25.2963615 C51.2544842,25.3550556 51.465985,25.3742829 51.6157558,25.3742829 C51.8313047,25.3742829 52.0681047,25.3186248 52.0681047,25.3186248 C52.1470381,25.3095171 52.1915644,25.3580915 52.2178756,25.429941 C52.2887131,25.6181667 52.4890825,26.1818316 52.5275369,26.2941598" id="Path" fill="#FFFFFF" fill-rule="nonzero" transform="translate(50.630707, 23.338402) scale(-1, 1) rotate(-180.000000) translate(-50.630707, -23.338402) "></path>
                            <path d="M42.3732686,29.3782147 C42.2417131,29.4186933 42.1223011,29.4460164 41.9664583,29.4753633 C41.8085917,29.5036986 41.6203661,29.5178661 41.4068414,29.5178661 C40.6620344,29.5178661 40.0750942,29.3073772 39.6632242,28.8924711 C39.2533781,28.4795892 38.9750875,27.8511583 38.8354361,27.0243823 L38.7848378,26.7460917 L37.8497814,26.7460917 C37.8497814,26.7460917 37.7364414,26.7501396 37.7121542,26.6266798 L37.5593472,25.7695447 C37.5482158,25.6885875 37.5836344,25.6369772 37.6929269,25.6369772 L38.6026842,25.6369772 L37.6797714,20.4840474 C37.6079217,20.0691414 37.5249406,19.7281089 37.4328517,19.4690457 C37.3427867,19.2140303 37.2547456,19.0227688 37.1454533,18.8831175 C37.0402089,18.749538 36.9410361,18.6503654 36.7690019,18.5926833 C36.6273269,18.5451209 36.4633883,18.5228577 36.2842706,18.5228577 C36.1850978,18.5228577 36.0525303,18.5390491 35.9543694,18.5592884 C35.8572208,18.5785158 35.8056106,18.5997671 35.7317372,18.631138 C35.7317372,18.631138 35.6254808,18.6716166 35.5829781,18.5653602 C35.5495833,18.4773192 35.3067114,17.8104338 35.2773644,17.7284645 C35.2490294,17.6464953 35.2895081,17.5827414 35.3411183,17.5635141 C35.4625542,17.5210115 35.5526192,17.4926765 35.7175697,17.4532098 C35.9462739,17.3995756 36.1395594,17.3965397 36.3207011,17.3965397 C36.6991764,17.3965397 37.0452686,17.4501739 37.331655,17.5533944 C37.6190533,17.6576269 37.8700208,17.8387688 38.0926533,18.0836645 C38.3324892,18.3487996 38.4832722,18.6260782 38.6269711,19.0055653 C38.7696583,19.3799927 38.8921064,19.8454969 38.989255,20.3879106 L39.9172275,25.6369772 L41.2732617,25.6369772 C41.2732617,25.6369772 41.3876139,25.6329293 41.4108892,25.7574011 L41.5647081,26.6135242 C41.5748275,26.6954934 41.5404208,26.7460917 41.4301164,26.7460917 L40.1135489,26.7460917 C40.1206328,26.7754387 40.1803386,27.2389191 40.3311217,27.6750763 C40.3958875,27.8602661 40.5173233,28.0110489 40.6195319,28.1142694 C40.7207286,28.2154661 40.8371044,28.2873156 40.9646122,28.3288061 C41.0951558,28.3713089 41.2439147,28.3915481 41.4068414,28.3915481 C41.5303011,28.3915481 41.6527489,28.3773806 41.7448378,28.3581533 C41.8723456,28.3308303 41.9219319,28.3166625 41.9553267,28.3065431 C42.0899183,28.2660644 42.1081336,28.3055311 42.1344447,28.3702969 L42.4491661,29.2345156 C42.4815489,29.3276164 42.4016036,29.3670831 42.3732686,29.3782147" id="Path" fill="#FFFFFF" fill-rule="nonzero" transform="translate(38.862395, 23.457203) scale(-1, 1) rotate(-180.000000) translate(-38.862395, -23.457203) "></path>
                            <path d="M23.9782613,17.6536771 C23.9782613,17.5848634 23.928675,17.5292053 23.8598613,17.5292053 L22.7679502,17.5292053 C22.6991366,17.5292053 22.6505622,17.5848634 22.6505622,17.6536771 L22.6505622,26.4415881 C22.6505622,26.5104017 22.6991366,26.5660599 22.7679502,26.5660599 L23.8598613,26.5660599 C23.928675,26.5660599 23.9782613,26.5104017 23.9782613,26.4415881 L23.9782613,17.6536771 L23.9782613,17.6536771 Z" id="Path" fill="#FFFFFF" fill-rule="nonzero" transform="translate(23.314412, 22.047633) scale(-1, 1) rotate(-180.000000) translate(-23.314412, -22.047633) "></path>
                        </g>
                        <g id="Group-4" stroke="none" stroke-width="1" fill="none" fill-rule="evenodd" transform="translate(0.000000, 66.000000)">
                            <rect id="Rectangle" fill="#00A1E0" x="11" y="8" width="399" height="3"></rect>
                            <g id="Group-3">
                                <circle id="Oval" fill="#00A1E0" cx="9.5" cy="9.5" r="9.5"></circle>
                                <g id="check" transform="translate(5.000000, 7.000000)" stroke="#FFFFFF" stroke-linecap="square" stroke-width="3">
                                    <polyline id="Path" points="8.72727273 0 2.72727273 6 0 3.27272727"></polyline>
                                </g>
                            </g>
                            <g id="Group-3" transform="translate(79.000000, 0.000000)">
                                <circle id="Oval" fill="#00A1E0" cx="9.5" cy="9.5" r="9.5"></circle>
                                <g id="check" transform="translate(5.000000, 7.000000)" stroke="#FFFFFF" stroke-linecap="square" stroke-width="3">
                                    <polyline id="Path" points="8.72727273 0 2.72727273 6 0 3.27272727"></polyline>
                                </g>
                            </g>
                            <g id="Group-3" transform="translate(158.000000, 0.000000)">
                                <circle id="Oval" fill="#00A1E0" cx="9.5" cy="9.5" r="9.5"></circle>
                                <g id="check" transform="translate(5.000000, 7.000000)" stroke="#FFFFFF" stroke-linecap="square" stroke-width="3">
                                    <polyline id="Path" points="8.72727273 0 2.72727273 6 0 3.27272727"></polyline>
                                </g>
                            </g>
                            <circle id="Oval" stroke="#00A1E0" stroke-width="3" fill="#F4F4F4" cx="246.5" cy="9.5" r="9.5"></circle>
                            <circle id="Oval" stroke="#F4F4F4" stroke-width="3" fill="#B7B6B8" cx="325.5" cy="9.5" r="9.5"></circle>
                            <circle id="Oval" stroke="#F4F4F4" stroke-width="3" fill="#B7B6B8" cx="404.5" cy="9.5" r="9.5"></circle>
                        </g>
                        <g id="Group-2" stroke="none" stroke-width="1" fill="none" fill-rule="evenodd" transform="translate(0.000000, 184.000000)">
                            <rect id="Rectangle" stroke="#C2754F" stroke-width="2" fill="#F4F4F4" x="1" y="1" width="205" height="34"></rect>
                            <rect id="Rectangle" fill="#B7B6B8" fill-rule="nonzero" opacity="0.5" x="86" y="13" width="34" height="10" rx="2.036"></rect>
                            <rect id="Rectangle" stroke="#E0E0E0" fill="#F4F4F4" x="207.5" y="0.5" width="206" height="35"></rect>
                            <rect id="Rectangle" fill="#B7B6B8" fill-rule="nonzero" opacity="0.5" x="297" y="13" width="27" height="10" rx="2.036"></rect>
                        </g>
                        <rect id="Rectangle" stroke="none" fill="#B7B6B8" fill-rule="nonzero" opacity="0.504789807" x="0" y="172" width="99" height="4" rx="1"></rect>
                        <rect id="Rectangle" stroke="none" fill="#B7B6B8" fill-rule="nonzero" opacity="0.504789807" x="0" y="251" width="70" height="4" rx="1"></rect>
                        <rect id="Rectangle" stroke="none" fill="#B7B6B8" fill-rule="nonzero" opacity="0.504789807" x="0" y="310" width="70" height="4" rx="1"></rect>
                        <rect id="Rectangle" stroke="none" fill="#B7B6B8" fill-rule="nonzero" opacity="0.504789807" x="186" y="251" width="50" height="4" rx="1"></rect>
                        <rect id="Rectangle" stroke="none" fill="#B7B6B8" fill-rule="nonzero" opacity="0.504789807" x="286" y="251" width="90" height="4" rx="1"></rect>
                        <g id="Rectangle" stroke="none" fill="none">
                            <use fill="black" fill-opacity="1" filter="url(#filter-4)" xlink:href="#path-3"></use>
                            <use fill="#FFFFFF" fill-rule="evenodd" xlink:href="#path-3"></use>
                        </g>
                        <polyline id="Path" stroke="#181818" stroke-width="2" fill="none" stroke-linecap="round" stroke-linejoin="round" points="155 272 160 277 165 272"></polyline>
                        <g id="Rectangle" stroke="none" fill="none">
                            <use fill="black" fill-opacity="1" filter="url(#filter-6)" xlink:href="#path-5"></use>
                            <use fill="#FFFFFF" fill-rule="evenodd" xlink:href="#path-5"></use>
                        </g>
                        <g id="Rectangle" stroke="none" fill="none">
                            <use fill="black" fill-opacity="1" filter="url(#filter-8)" xlink:href="#path-7"></use>
                            <use fill="#FFFFFF" fill-rule="evenodd" xlink:href="#path-7"></use>
                        </g>
                        <g id="Rectangle" stroke="none" fill="none">
                            <use fill="black" fill-opacity="1" filter="url(#filter-10)" xlink:href="#path-9"></use>
                            <use fill="#FFFFFF" fill-rule="evenodd" xlink:href="#path-9"></use>
                        </g>
                        <polyline id="Path" stroke="#181818" stroke-width="2" fill="none" stroke-linecap="round" stroke-linejoin="round" points="395 272 400 277 405 272"></polyline>
                    </g>
                </g>
            </g>
            <rect id="Rectangle" fill="#481A54" x="462" y="0" width="130" height="346"></rect>
            <g id="Group-7" transform="translate(486.000000, 95.000000)">
                <g id="Group-6" transform="translate(0.000000, 52.000000)">
                    <rect id="Rectangle" fill="#00A1E0" x="8" y="14" width="3" height="45"></rect>
                    <g id="Group-3">
                        <circle id="Oval" fill="#00A1E0" cx="9.5" cy="9.5" r="9.5"></circle>
                        <g id="check" transform="translate(5.000000, 7.000000)" stroke="#FFFFFF" stroke-linecap="square" stroke-width="3">
                            <polyline id="Path" points="8.72727273 0 2.72727273 6 0 3.27272727"></polyline>
                        </g>
                    </g>
                    <g id="Group-3" transform="translate(0.000000, 43.000000)">
                        <rect id="Rectangle" fill="#7F5F87" x="8" y="6" width="3" height="45"></rect>
                        <circle id="Oval" fill="#00A1E0" cx="9.5" cy="9.5" r="9.5"></circle>
                        <circle id="Oval" fill="#7F5F87" cx="9.5" cy="52.5" r="9.5"></circle>
                    </g>
                </g>
                <rect id="Rectangle" fill="#FFFFFF" fill-rule="nonzero" x="0" y="0" width="54" height="10" rx="2.036"></rect>
                <rect id="Rectangle" fill="#FFFFFF" fill-rule="nonzero" opacity="0.300000012" x="0" y="21" width="32" height="10" rx="2.036"></rect>
                <rect id="Rectangle" fill="#FFFFFF" fill-rule="nonzero" opacity="0.300000012" x="40" y="21" width="38" height="10" rx="2.036"></rect>
            </g>
        </g>
    </g>
</svg>